<svg width="20" height="20" viewBox="0 0 20 20" fill="none" xmlns="http://www.w3.org/2000/svg">
<rect width="20" height="20" fill="black" fill-opacity="0"/>
<path d="M16.7879 4.62213C16.905 4.50497 16.905 4.31503 16.7879 4.19787L15.8021 3.21213C15.685 3.09497 15.495 3.09497 15.3779 3.21213L10.2121 8.37787C10.095 8.49503 9.90503 8.49503 9.78787 8.37787L4.62213 3.21213C4.50497 3.09497 4.31503 3.09497 4.19787 3.21213L3.21213 4.19787C3.09497 4.31503 3.09497 4.50497 3.21213 4.62213L8.37787 9.78787C8.49503 9.90503 8.49503 10.095 8.37787 10.2121L3.21213 15.3779C3.09497 15.495 3.09497 15.685 3.21213 15.8021L4.19787 16.7879C4.31503 16.905 4.50497 16.905 4.62213 16.7879L9.78787 11.6221C9.90503 11.505 10.095 11.505 10.2121 11.6221L15.3779 16.7879C15.495 16.905 15.685 16.905 15.8021 16.7879L16.7879 15.8021C16.905 15.685 16.905 15.495 16.7879 15.3779L11.6221 10.2121C11.505 10.095 11.505 9.90503 11.6221 9.78787L16.7879 4.62213Z" fill="white"/>
</svg>
